<svg width="117" height="16" viewBox="0 0 117 16" fill="none" xmlns="http://www.w3.org/2000/svg">
<path fill-rule="evenodd" clip-rule="evenodd" d="M16.5386 6.00296C16.5036 5.8957 16.4109 5.81748 16.2992 5.80119L10.9392 5.02222L8.54215 0.165333C8.49237 0.064 8.38926 0 8.27667 0C8.16408 0 8.06067 0.064 8.01119 0.165333L5.61385 5.02252L0.253855 5.80148C0.142151 5.81778 0.0497065 5.8957 0.0144473 6.00326C-0.0202194 6.11022 0.00852134 6.22815 0.0894102 6.30667L3.96823 10.0874L3.05237 15.4261C3.03341 15.5372 3.07904 15.6495 3.17 15.7159C3.26156 15.7828 3.38274 15.7914 3.482 15.7384L8.27667 13.2181L13.0707 15.7384C13.114 15.7612 13.1617 15.7724 13.2088 15.7724C13.2702 15.7724 13.3312 15.7535 13.383 15.7159C13.4743 15.6495 13.5199 15.5372 13.5007 15.4261L12.5851 10.0877L16.4639 6.30667C16.5445 6.22756 16.5736 6.10993 16.5386 6.00296ZM41.5385 6.00296C41.5036 5.8957 41.4108 5.81748 41.2991 5.80119L35.9391 5.02222L33.5421 0.165333C33.4923 0.064 33.3892 0 33.2766 0C33.164 0 33.0606 0.064 33.0111 0.165333L30.6138 5.02252L25.2538 5.80148C25.1421 5.81778 25.0496 5.8957 25.0144 6.00326C24.9797 6.11022 25.0085 6.22815 25.0893 6.30667L28.9682 10.0874L28.0523 15.4261C28.0333 15.5372 28.079 15.6495 28.1699 15.7159C28.2615 15.7828 28.3827 15.7914 28.4819 15.7384L33.2766 13.2181L38.0707 15.7384C38.1139 15.7612 38.1616 15.7724 38.2088 15.7724C38.2701 15.7724 38.3311 15.7535 38.383 15.7159C38.4742 15.6495 38.5199 15.5372 38.5006 15.4261L37.5851 10.0877L41.4639 6.30667C41.5445 6.22756 41.5735 6.10993 41.5385 6.00296ZM66.2991 5.80119C66.4108 5.81748 66.5036 5.8957 66.5385 6.00296C66.5735 6.10993 66.5445 6.22756 66.4639 6.30667L62.5851 10.0877L63.5006 15.4261C63.5199 15.5372 63.4742 15.6495 63.383 15.7159C63.3311 15.7535 63.2701 15.7724 63.2088 15.7724C63.1616 15.7724 63.1139 15.7612 63.0707 15.7384L58.2766 13.2181L53.4819 15.7384C53.3827 15.7914 53.2615 15.7828 53.1699 15.7159C53.079 15.6495 53.0333 15.5372 53.0523 15.4261L53.9682 10.0874L50.0893 6.30667C50.0085 6.22815 49.9797 6.11022 50.0144 6.00326C50.0496 5.8957 50.1421 5.81778 50.2538 5.80148L55.6138 5.02252L58.0111 0.165333C58.0606 0.064 58.164 0 58.2766 0C58.3892 0 58.4923 0.064 58.5421 0.165333L60.9391 5.02222L66.2991 5.80119ZM91.5385 6.00296C91.5035 5.8957 91.4108 5.81748 91.2991 5.80119L85.9391 5.02222L83.542 0.165333C83.4922 0.064 83.3891 0 83.2766 0C83.164 0 83.0605 0.064 83.0111 0.165333L80.6137 5.02252L75.2537 5.80148C75.142 5.81778 75.0496 5.8957 75.0143 6.00326C74.9797 6.11022 75.0084 6.22815 75.0893 6.30667L78.9681 10.0874L78.0522 15.4261C78.0333 15.5372 78.0789 15.6495 78.1699 15.7159C78.2614 15.7828 78.3826 15.7914 78.4819 15.7384L83.2766 13.2181L88.0706 15.7384C88.1139 15.7612 88.1616 15.7724 88.2087 15.7724C88.27 15.7724 88.3311 15.7535 88.3829 15.7159C88.4742 15.6495 88.5198 15.5372 88.5005 15.4261L87.585 10.0877L91.4638 6.30667C91.5444 6.22756 91.5734 6.10993 91.5385 6.00296ZM116.299 5.80119C116.411 5.81748 116.504 5.8957 116.539 6.00296C116.573 6.10993 116.544 6.22756 116.464 6.30667L112.585 10.0877L113.501 15.4261C113.52 15.5372 113.474 15.6495 113.383 15.7159C113.331 15.7535 113.27 15.7724 113.209 15.7724C113.162 15.7724 113.114 15.7612 113.071 15.7384L108.277 13.2181L103.482 15.7384C103.383 15.7914 103.261 15.7828 103.17 15.7159C103.079 15.6495 103.033 15.5372 103.052 15.4261L103.968 10.0874L100.089 6.30667C100.008 6.22815 99.9797 6.11022 100.014 6.00326C100.05 5.8957 100.142 5.81778 100.254 5.80148L105.614 5.02252L108.011 0.165333C108.061 0.064 108.164 0 108.277 0C108.389 0 108.492 0.064 108.542 0.165333L110.939 5.02222L116.299 5.80119Z" fill="#EF9546"/>
</svg>
